<svg width="1436" height="351" fill="none" xmlns="http://www.w3.org/2000/svg"><g clip-path="url(#a)"><path fill-rule="evenodd" clip-rule="evenodd" d="M845.005 158.795h-.13c-12.91 0-24 2.68-33.16 7.93-1.5.886-2.94 1.836-4.32 2.85a15.547 15.547 0 0 0-5.55 7.6l-8.33 24.71a1.08 1.08 0 0 1-2.11-.41c.66-10 1.72-25.45 1.72-25.45v-11.43a2.8 2.8 0 0 0-2.8-2.8h-23.89a2.8 2.8 0 0 0-2.8 2.8v160.58a2.808 2.808 0 0 0 .817 1.986 2.808 2.808 0 0 0 1.983.824h23.87a2.808 2.808 0 0 0 1.983-.824 2.785 2.785 0 0 0 .817-1.986v-87.47c0-32.64 14.6-48.5 44.58-48.5h5.5a2.81 2.81 0 0 0 2.81-2.81v-26.36c.02-.72-.34-1.24-.99-1.24Zm588.115 3h-24.17a2.75 2.75 0 0 0-1.97.82 2.823 2.823 0 0 0-.83 1.98v12.16c0 1.34.12 2.679.34 4l3.79 22c.06.253.01.515-.12.739a1.04 1.04 0 0 1-.57.479c-.24.086-.51.08-.75-.015a1.088 1.088 0 0 1-.56-.503l-13.66-24.89a22.97 22.97 0 0 0-7.71-8.33c-.86-.56-1.74-1.1-2.65-1.63-10.68-6.24-23.24-9.42-37.92-9.42h-.22c-41.18 0-76.84 32.38-76.84 85.79 0 53.41 35.36 85.78 76.8 85.78 14.28 0 26.91-3.18 37.59-9.44 1.2-.71 2.36-1.45 3.49-2.2a22.86 22.86 0 0 0 7.25-8l13.87-25.27a1.084 1.084 0 0 1 1.31-.519c.24.085.45.255.57.479.13.224.18.487.12.74l-3.79 22a24.35 24.35 0 0 0-.34 4v12.8c0 .742.3 1.454.83 1.98.52.525 1.23.82 1.97.82h24.17c.75 0 1.46-.295 1.98-.82.53-.526.82-1.238.82-1.98v-160.75c0-.743-.29-1.455-.82-1.98a2.779 2.779 0 0 0-1.98-.82Zm-83.27 141.89c-28.81 0-51.17-22.18-51.17-58.78s23.12-58.79 51.17-58.79c27.5 0 52.21 20.93 52.21 58.79s-24.71 58.78-52.21 58.78Zm-338.52-141.89h-24.165a2.788 2.788 0 0 0-1.98.82 2.8 2.8 0 0 0-.82 1.98v12.16c-.003 1.34.11 2.679.34 4l3.79 22a1.07 1.07 0 0 1-2 .7l-13.66-24.89a22.997 22.997 0 0 0-7.7-8.33c-.86-.56-1.74-1.1-2.65-1.63-10.68-6.24-23.24-9.42-37.92-9.42h-.22c-41.18 0-76.85 32.38-76.85 85.79 0 53.41 35.37 85.78 76.81 85.78 14.27 0 26.91-3.18 37.59-9.44 1.19-.71 2.36-1.45 3.48-2.2a22.836 22.836 0 0 0 7.26-8l13.86-25.27a1.073 1.073 0 0 1 1.304-.519 1.07 1.07 0 0 1 .696 1.219l-3.79 22a23.006 23.006 0 0 0-.34 4v12.8a2.803 2.803 0 0 0 2.8 2.8h24.165a2.796 2.796 0 0 0 2.59-1.727c.14-.34.22-.705.22-1.073v-160.75a2.829 2.829 0 0 0-1.74-2.59c-.34-.14-.71-.212-1.07-.21Zm-83.265 141.89c-28.81 0-51.17-22.18-51.17-58.78s23.12-58.79 51.17-58.79c27.5 0 52.21 20.93 52.21 58.79s-24.71 58.78-52.21 58.78Z" fill="#000"/><path d="M1241.55 161.795h-23.86c-1.55 0-2.8 1.258-2.8 2.81v160.57c0 1.552 1.25 2.81 2.8 2.81h23.86c1.56 0 2.81-1.258 2.81-2.81v-160.57c0-1.552-1.25-2.81-2.81-2.81Zm-515.795 0h-23.86a2.81 2.81 0 0 0-2.81 2.81v160.57a2.81 2.81 0 0 0 2.81 2.81h23.86a2.81 2.81 0 0 0 2.81-2.81v-160.57a2.81 2.81 0 0 0-2.81-2.81Z" fill="#000"/><path fill-rule="evenodd" clip-rule="evenodd" d="M700.605 142.795a17.654 17.654 0 0 1 0-23.41l.19-.21a17.39 17.39 0 0 1 13-5.835 17.395 17.395 0 0 1 13 5.835l.19.21a17.65 17.65 0 0 1 0 23.41 17.65 17.65 0 0 1-13.19 5.927 17.646 17.646 0 0 1-13.19-5.927Zm515.825 0a17.644 17.644 0 0 1-4.43-11.705c0-4.313 1.57-8.477 4.43-11.705l.19-.21a17.488 17.488 0 0 1 5.88-4.309 17.391 17.391 0 0 1 20.12 4.309l.19.21a17.601 17.601 0 0 1 4.44 11.705c0 4.313-1.57 8.476-4.44 11.705a17.602 17.602 0 0 1-13.19 5.927c-2.49 0-4.95-.529-7.23-1.55a17.739 17.739 0 0 1-5.96-4.377Z" fill="#000"/><path d="M1197.18 161.785h-25.46c-.95.002-1.89.297-2.67.846a4.729 4.729 0 0 0-1.72 2.224l-48.9 133.55-3.76 10.28-3.78-10.28-49.18-133.56a4.632 4.632 0 0 0-1.71-2.22 4.674 4.674 0 0 0-2.68-.84h-25.69a1.862 1.862 0 0 0-1.54.818c-.18.253-.28.544-.32.847-.03.304.01.611.12.895l63 160.67c.35.88.94 1.638 1.72 2.173.78.536 1.7.824 2.64.827h34.39a4.65 4.65 0 0 0 2.64-.828 4.599 4.599 0 0 0 1.71-2.172l63-160.67c.12-.29.16-.603.12-.911a1.898 1.898 0 0 0-.33-.856 1.89 1.89 0 0 0-1.6-.793Zm-535.745-43.07h-29.2a4.696 4.696 0 0 0-4.27 2.77l-74.53 166.67-4.44 9.94-78.92-176.61a4.684 4.684 0 0 0-4.27-2.77h-29.49a2.81 2.81 0 0 0-2.81 2.81v203.65a2.81 2.81 0 0 0 2.81 2.81h23.86a2.81 2.81 0 0 0 2.81-2.81v-111.65a175.104 175.104 0 0 0-3.38-34.21l-2.64-13.22a2.329 2.329 0 0 1 4.42-1.41l72.15 161.63a2.817 2.817 0 0 0 2.57 1.67h26a2.79 2.79 0 0 0 2.36-1.64l71.87-161.4a2.327 2.327 0 0 1 2.852-1.307 2.327 2.327 0 0 1 1.568 2.717l-2.57 12.78a174.825 174.825 0 0 0-3.46 34.61v111.43a2.81 2.81 0 0 0 2.81 2.81h23.9a2.81 2.81 0 0 0 2.81-2.81v-203.65a2.809 2.809 0 0 0-2.81-2.81Z" fill="#000"/><path d="m291.835 350.355-58.35-116.7V.245l116.7 233.41-58.35 116.7Z" fill="url(#b)"/><path d="m.075 175.305 233.41 58.35 58.35 116.7h-175.06L.075 175.305Z" fill="url(#c)"/><path fill-rule="evenodd" clip-rule="evenodd" d="M233.485.245v233.41L.075 175.305 233.485.245Z" fill="url(#d)"/></g><defs><linearGradient id="b" x1="218.015" y1="92.195" x2="362.035" y2="360.295" gradientUnits="userSpaceOnUse"><stop stop-color="#451BE6"/><stop offset=".12" stop-color="#471EE6"/><stop offset=".2" stop-color="#4D26E7"/><stop offset=".26" stop-color="#5834E9"/><stop offset=".31" stop-color="#6749EB"/><stop offset=".36" stop-color="#7A63EF"/><stop offset=".41" stop-color="#9283F2"/><stop offset=".45" stop-color="#AEA9F7"/><stop offset=".47" stop-color="#BBBBF9"/><stop offset=".55" stop-color="#C3D0F7"/><stop offset=".64" stop-color="#C9E0F6"/><stop offset=".71" stop-color="#CBE6F5"/><stop offset="1" stop-color="#4EE685"/></linearGradient><linearGradient id="c" x1="64.905" y1="107.915" x2="208.925" y2="376.005" gradientUnits="userSpaceOnUse"><stop stop-color="#451BE6"/><stop offset=".12" stop-color="#471EE6"/><stop offset=".2" stop-color="#4D26E7"/><stop offset=".26" stop-color="#5834E9"/><stop offset=".31" stop-color="#6749EB"/><stop offset=".36" stop-color="#7A63EF"/><stop offset=".41" stop-color="#9283F2"/><stop offset=".45" stop-color="#AEA9F7"/><stop offset=".47" stop-color="#BBBBF9"/><stop offset=".55" stop-color="#C3D0F7"/><stop offset=".64" stop-color="#C9E0F6"/><stop offset=".71" stop-color="#CBE6F5"/><stop offset="1" stop-color="#4EE685"/></linearGradient><linearGradient id="d" x1="94.245" y1="45.825" x2="238.265" y2="313.925" gradientUnits="userSpaceOnUse"><stop stop-color="#451BE6"/><stop offset=".12" stop-color="#471EE6"/><stop offset=".2" stop-color="#4D26E7"/><stop offset=".26" stop-color="#5834E9"/><stop offset=".31" stop-color="#6749EB"/><stop offset=".36" stop-color="#7A63EF"/><stop offset=".41" stop-color="#9283F2"/><stop offset=".45" stop-color="#AEA9F7"/><stop offset=".47" stop-color="#BBBBF9"/><stop offset=".55" stop-color="#C3D0F7"/><stop offset=".64" stop-color="#C9E0F6"/><stop offset=".71" stop-color="#CBE6F5"/><stop offset="1" stop-color="#4EE685"/></linearGradient><clipPath id="a"><path fill="#fff" transform="translate(.075 .245)" d="M0 0h1435.85v350.11H0z"/></clipPath></defs></svg>